<?xml version="1.0" encoding="UTF-8"?>
<svg width="512" height="512" viewBox="0 0 512 512" fill="none" xmlns="http://www.w3.org/2000/svg">
  <!-- Definitions -->
  <defs>
    <linearGradient id="bgGradient" x1="0" y1="0" x2="512" y2="512">
      <stop offset="0%" style="stop-color:#B45309"/>
      <stop offset="100%" style="stop-color:#D97706"/>
    </linearGradient>
    <filter id="glow" x="-50%" y="-50%" width="200%" height="200%">
      <feGaussianBlur in="SourceGraphic" stdDeviation="4" />
    </filter>
  </defs>

  <!-- Background -->
  <rect width="512" height="512" rx="100" fill="#1E293B"/>
  
  <!-- Glowing Effect -->
  <rect width="512" height="512" rx="92" fill="#FCD34D" opacity="0.15" filter="url(#glow)"/>
  
  <!-- Chat Bubble -->
  <path 
    d="M406 255.5C406 175.589 341.411 111 261.5 111H250.5C170.589 111 106 175.589 106 255.5C106 292.13 120.042 325.567 143.328 351.054C146.926 354.996 148.789 360.228 148.34 365.584L144 401L179.416 396.66C184.772 396.211 190.004 398.074 193.946 401.672C219.433 424.958 252.87 439 289.5 439H300.5C380.411 439 445 374.411 445 294.5V283.5C445 269.745 442.314 256.547 437.5 244.3C428.687 221.76 413.87 202.3 395 187.7C370.233 168.1 339.877 156.5 306.5 156.5H244.577C236.399 156.5 228.577 159.914 222.885 165.885L218.5 170.5"
    fill="#FEF3C7"
  />
  
  <!-- PRO Text -->
  <text
    x="256"
    y="300"
    font-family="Arial Black, sans-serif"
    font-size="120"
    font-weight="900"
    fill="#92400E"
    text-anchor="middle"
    dominant-baseline="middle"
  >PRO</text>

  <path d="M256 128C176.5 128 112 192.5 112 272C112 351.5 176.5 416 256 416C335.5 416 400 351.5 400 272" stroke="#38BDF8" stroke-width="32" stroke-linecap="round"/>
  <path d="M256 128C296.869 128 335.761 144.299 364.411 172.949C393.061 201.599 409.36 240.491 409.36 281.36" stroke="#60A5FA" stroke-width="32" stroke-linecap="round"/>
  <circle cx="256" cy="272" r="32" fill="#38BDF8"/>
  <path d="M256 128V240" stroke="#38BDF8" stroke-width="32" stroke-linecap="round"/>
</svg> 